<svg width="329" height="70" viewBox="0 0 329 70" fill="none" xmlns="http://www.w3.org/2000/svg">
<path d="M0 18.1957C0 8.14649 8.14649 0 18.1957 0H51.8043C61.8535 0 70 8.14649 70 18.1957V51.8043C70 61.8535 61.8535 70 51.8043 70H18.1957C8.14649 70 0 61.8535 0 51.8043V18.1957Z" fill="#4674F4"/>
<path fill-rule="evenodd" clip-rule="evenodd" d="M8.24023 35.84C8.24023 21.4178 19.9361 9.72803 34.3616 9.72803C42.6746 9.72803 50.0818 13.6129 54.8618 19.6558C55.7389 20.7647 55.551 22.3746 54.4422 23.2518C53.3333 24.1289 51.7233 23.941 50.8462 22.8321C46.9957 17.9644 41.0437 14.848 34.3616 14.848C22.7619 14.848 13.3602 24.2474 13.3602 35.84C13.3602 47.4326 22.7619 56.832 34.3616 56.832C41.5574 56.832 47.9088 53.217 51.6971 47.6936C52.4968 46.5276 54.0902 46.2307 55.2562 47.0304C56.4222 47.8301 56.7191 49.4235 55.9194 50.5895C51.2169 57.4459 43.3158 61.952 34.3616 61.952C19.9361 61.952 8.24023 50.2622 8.24023 35.84Z" fill="white"/>
<path fill-rule="evenodd" clip-rule="evenodd" d="M57.6877 33.0241C56.5566 33.0241 55.6397 33.941 55.6397 35.0721C55.6397 36.2031 56.5566 37.1201 57.6877 37.1201C58.8187 37.1201 59.7357 36.2031 59.7357 35.0721C59.7357 33.941 58.8187 33.0241 57.6877 33.0241ZM52.0557 35.0721C52.0557 31.9616 54.5772 29.4401 57.6877 29.4401C60.7981 29.4401 63.3197 31.9616 63.3197 35.0721C63.3197 38.1825 60.7981 40.7041 57.6877 40.7041C54.5772 40.7041 52.0557 38.1825 52.0557 35.0721Z" fill="white"/>
<path fill-rule="evenodd" clip-rule="evenodd" d="M28.8034 30.4775C26.8735 30.4775 25.6337 31.8889 25.6337 33.2437V41.9234C25.6337 43.3373 24.4875 44.4834 23.0737 44.4834C21.6598 44.4834 20.5137 43.3373 20.5137 41.9234V33.2437C20.5137 28.7155 24.4044 25.3575 28.8034 25.3575C33.2024 25.3575 37.093 28.7155 37.093 33.2437V41.9234C37.093 43.3373 35.9469 44.4834 34.533 44.4834C33.1192 44.4834 31.973 43.3373 31.973 41.9234V33.2437C31.973 31.8889 30.7332 30.4775 28.8034 30.4775Z" fill="white"/>
<path fill-rule="evenodd" clip-rule="evenodd" d="M40.2628 30.4775C38.333 30.4775 37.0931 31.8889 37.0931 33.2437V41.9234C37.0931 43.3373 35.947 44.4834 34.5331 44.4834C33.1193 44.4834 31.9731 43.3373 31.9731 41.9234V33.2437C31.9731 28.7155 35.8638 25.3575 40.2628 25.3575C44.6618 25.3575 48.5525 28.7155 48.5525 33.2437V41.9234C48.5525 43.3373 47.4064 44.4834 45.9925 44.4834C44.5787 44.4834 43.4325 43.3373 43.4325 41.9234V33.2437C43.4325 31.8889 42.1927 30.4775 40.2628 30.4775Z" fill="white"/>
<path fill-rule="evenodd" clip-rule="evenodd" d="M303.88 26.1577C304.91 26.1577 305.749 25.8569 306.396 25.2553C307.042 24.6537 307.366 23.8928 307.366 22.9727C307.366 22.1234 307.042 21.4156 306.396 20.8493C305.749 20.2831 304.91 20 303.88 20C302.85 20 302.011 20.2949 301.364 20.8847C300.718 21.4746 300.394 22.2059 300.394 23.0789C300.394 23.9518 300.718 24.6832 301.364 25.273C302.011 25.8628 302.85 26.1577 303.88 26.1577ZM106.55 47.1436C104.777 47.8986 102.8 48.276 100.62 48.276C98.0566 48.276 95.7387 47.7275 93.6663 46.6304C91.594 45.5334 89.9648 44.0116 88.7789 42.0652C87.593 40.1188 87 37.9188 87 35.4651C87 33.0115 87.593 30.8114 88.7789 28.865C89.9648 26.9186 91.594 25.3969 93.6663 24.2998C95.7387 23.2027 98.0686 22.6542 100.656 22.6542C102.836 22.6542 104.807 23.0317 106.568 23.7867C108.329 24.5416 109.808 25.6269 111.006 27.0425L107.268 30.4398C105.567 28.5052 103.459 27.5379 100.944 27.5379C99.3863 27.5379 97.9967 27.8741 96.7749 28.5465C95.553 29.2189 94.6007 30.1567 93.9179 31.36C93.2351 32.5632 92.8937 33.9316 92.8937 35.4651C92.8937 36.9987 93.2351 38.367 93.9179 39.5703C94.6007 40.7735 95.553 41.7113 96.7749 42.3837C97.9967 43.0561 99.3863 43.3923 100.944 43.3923C103.459 43.3923 105.567 42.4132 107.268 40.455L111.006 43.8524C109.808 45.2915 108.323 46.3886 106.55 47.1436ZM120.134 38.8625V47.8514H114.528V28.8119H119.882V31.3246C120.553 30.4044 121.458 29.7085 122.596 29.2366C123.639 28.8042 124.953 28.8077 126.309 28.8113C126.433 28.8116 126.557 28.8119 126.681 28.8119V33.908C126.058 33.8608 125.639 33.8372 125.423 33.8372C123.818 33.8372 122.41 33.9965 121.5 34.8812C120.589 35.7659 120.134 37.093 120.134 38.8625ZM133.359 55C135.204 55 136.779 54.5517 138.084 53.6552C139.39 52.7587 140.486 51.2133 141.373 49.0192L150.105 28.8119H144.715L139.252 41.729L133.826 28.8119H128.04L136.413 47.9929L136.342 48.1699C135.958 49.0192 135.527 49.6267 135.048 49.9924C134.569 50.3581 133.946 50.541 133.179 50.541C132.628 50.541 132.071 50.4348 131.508 50.2224C130.945 50.0101 130.448 49.7152 130.017 49.3377L127.968 53.2659C128.591 53.8086 129.394 54.2332 130.376 54.5399C131.358 54.8466 132.353 55 133.359 55ZM158.012 45.8342V54.7169H152.405V28.8119H157.76V31.0061C159.15 29.3546 161.174 28.5288 163.833 28.5288C165.63 28.5288 167.265 28.9358 168.739 29.7497C170.212 30.5637 171.368 31.708 172.207 33.1825C173.045 34.6571 173.465 36.3734 173.465 38.3316C173.465 40.2899 173.045 42.0062 172.207 43.4808C171.368 44.9553 170.212 46.0996 168.739 46.9135C167.265 47.7275 165.63 48.1345 163.833 48.1345C161.366 48.1345 159.425 47.3677 158.012 45.8342ZM162.863 43.6047C161.426 43.6047 160.246 43.1269 159.323 42.1714C158.401 41.2159 157.94 39.936 157.94 38.3316C157.94 36.7273 158.401 35.4474 159.323 34.4919C160.246 33.5364 161.426 33.0586 162.863 33.0586C164.301 33.0586 165.48 33.5364 166.403 34.4919C167.325 35.4474 167.786 36.7273 167.786 38.3316C167.786 39.936 167.325 41.2159 166.403 42.1714C165.48 43.1269 164.301 43.6047 162.863 43.6047ZM187.642 47.8337C186.839 48.0342 185.995 48.1345 185.108 48.1345C182.808 48.1345 181.029 47.5565 179.771 46.4004C178.514 45.2444 177.885 43.5457 177.885 41.3043V33.4833H174.902V29.2366H177.885V24.6006H183.491V29.2366H188.307V33.4833H183.491V41.2336C183.491 42.0357 183.701 42.655 184.12 43.0915C184.539 43.528 185.132 43.7462 185.899 43.7462C186.785 43.7462 187.54 43.5103 188.163 43.0384L189.672 46.9312C189.121 47.3323 188.444 47.6331 187.642 47.8337ZM202.034 48.1345C204.071 48.1345 205.892 47.7157 207.497 46.8782C209.102 46.0406 210.36 44.8787 211.27 43.3923C212.181 41.906 212.636 40.2191 212.636 38.3316C212.636 36.4442 212.181 34.7573 211.27 33.271C210.36 31.7846 209.102 30.6227 207.497 29.7851C205.892 28.9476 204.071 28.5288 202.034 28.5288C199.998 28.5288 198.171 28.9476 196.554 29.7851C194.937 30.6227 193.673 31.7846 192.763 33.271C191.852 34.7573 191.397 36.4442 191.397 38.3316C191.397 40.2191 191.852 41.906 192.763 43.3923C193.673 44.8787 194.937 46.0406 196.554 46.8782C198.171 47.7157 199.998 48.1345 202.034 48.1345ZM198.477 42.1714C199.411 43.1269 200.597 43.6047 202.034 43.6047C203.472 43.6047 204.652 43.1269 205.574 42.1714C206.497 41.2159 206.958 39.936 206.958 38.3316C206.958 36.7273 206.497 35.4474 205.574 34.4919C204.652 33.5364 203.472 33.0586 202.034 33.0586C200.597 33.0586 199.411 33.5364 198.477 34.4919C197.542 35.4474 197.075 36.7273 197.075 38.3316C197.075 39.936 197.542 41.2159 198.477 42.1714ZM221.98 47.8514V38.2963C221.98 36.6448 222.363 35.4002 223.13 34.5627C223.896 33.7251 224.926 33.3064 226.22 33.3064C228.664 33.3064 229.886 34.8045 229.886 37.8008V47.8514H235.492V38.2963C235.492 36.6448 235.875 35.4002 236.642 34.5627C237.408 33.7251 238.451 33.3064 239.768 33.3064C240.942 33.3064 241.847 33.678 242.482 34.4211C243.116 35.1643 243.434 36.2909 243.434 37.8008V47.8514H249.04V36.9515C249.04 34.1439 248.327 32.0383 246.902 30.6345C245.476 29.2307 243.554 28.5288 241.134 28.5288C239.696 28.5288 238.373 28.8001 237.163 29.3428C235.953 29.8854 234.953 30.6522 234.162 31.6431C233.491 30.6286 232.605 29.8559 231.503 29.3251C230.401 28.7942 229.167 28.5288 227.801 28.5288C226.555 28.5288 225.411 28.7412 224.369 29.1658C223.327 29.5905 222.447 30.2039 221.728 31.0061V28.8119H216.373V47.8514H221.98ZM265.93 45.4803C264.876 47.2497 262.912 48.1345 260.037 48.1345C258.551 48.1345 257.264 47.8868 256.174 47.3913C255.083 46.8959 254.251 46.2117 253.676 45.3387C253.101 44.4658 252.813 43.4749 252.813 42.366C252.813 40.5966 253.49 39.2046 254.844 38.1901C256.198 37.1756 258.288 36.6684 261.115 36.6684H265.571C265.571 35.4651 265.2 34.5391 264.457 33.8903C263.714 33.2415 262.6 32.9171 261.115 32.9171C260.085 32.9171 259.073 33.0763 258.078 33.3948C257.084 33.7133 256.239 34.1439 255.545 34.6866L253.532 30.8291C254.586 30.0977 255.85 29.5315 257.324 29.1304C258.797 28.7294 260.312 28.5288 261.87 28.5288C264.864 28.5288 267.164 29.2307 268.77 30.6345C270.375 32.0383 271.177 34.1557 271.177 36.9869V47.8514H265.93V45.4803ZM261.438 44.4186C260.456 44.4186 259.683 44.2122 259.12 43.7993C258.557 43.3864 258.276 42.8261 258.276 42.1183C258.276 40.632 259.426 39.8888 261.726 39.8888H265.571V41.8352C265.26 42.6845 264.733 43.3274 263.99 43.7639C263.247 44.2004 262.397 44.4186 261.438 44.4186ZM281.851 38.4378V47.8514H276.244V28.8119H281.599V31.0415C282.342 30.2393 283.264 29.62 284.366 29.1835C285.468 28.7471 286.678 28.5288 287.996 28.5288C290.392 28.5288 292.326 29.2366 293.8 30.6522C295.273 32.0677 296.01 34.1675 296.01 36.9515V47.8514H290.404V37.8008C290.404 36.2909 290.068 35.1643 289.397 34.4211C288.727 33.678 287.756 33.3064 286.486 33.3064C285.073 33.3064 283.947 33.7369 283.108 34.5981C282.27 35.4592 281.851 36.7391 281.851 38.4378ZM306.683 28.8119V47.8514H301.077V28.8119H306.683ZM317.86 48.1345C320.734 48.1345 322.699 47.2497 323.753 45.4803V47.8514H329V36.9869C329 34.1557 328.197 32.0383 326.592 30.6345C324.987 29.2307 322.687 28.5288 319.692 28.5288C318.135 28.5288 316.62 28.7294 315.146 29.1304C313.673 29.5315 312.409 30.0977 311.355 30.8291L313.367 34.6866C314.062 34.1439 314.907 33.7133 315.901 33.3948C316.895 33.0763 317.907 32.9171 318.938 32.9171C320.423 32.9171 321.537 33.2415 322.28 33.8903C323.022 34.5391 323.394 35.4651 323.394 36.6684H318.938C316.111 36.6684 314.02 37.1756 312.667 38.1901C311.313 39.2046 310.636 40.5966 310.636 42.366C310.636 43.4749 310.924 44.4658 311.499 45.3387C312.074 46.2117 312.906 46.8959 313.996 47.3913C315.086 47.8868 316.374 48.1345 317.86 48.1345ZM316.943 43.7993C317.506 44.2122 318.279 44.4186 319.261 44.4186C320.219 44.4186 321.07 44.2004 321.813 43.7639C322.555 43.3274 323.082 42.6845 323.394 41.8352V39.8888H319.549C317.249 39.8888 316.099 40.632 316.099 42.1183C316.099 42.8261 316.38 43.3864 316.943 43.7993Z" fill="#273138"/>
</svg>
