<svg width="56" height="53" viewBox="0 0 56 53" fill="none" xmlns="http://www.w3.org/2000/svg">
<path fill-rule="evenodd" clip-rule="evenodd" d="M0 26.112C0 11.6898 11.6959 0 26.1214 0C34.4344 0 41.8416 3.88484 46.6215 9.92775C47.4987 11.0366 47.3108 12.6466 46.2019 13.5237C45.093 14.4009 43.4831 14.213 42.6059 13.1041C38.7555 8.23637 32.8034 5.12 26.1214 5.12C14.5217 5.12 5.12 14.5194 5.12 26.112C5.12 37.7046 14.5217 47.104 26.1214 47.104C33.3172 47.104 39.6686 43.489 43.4568 37.9655C44.2565 36.7996 45.85 36.5027 47.016 37.3023C48.1819 38.102 48.4789 39.6955 47.6792 40.8615C42.9766 47.7179 35.0756 52.224 26.1214 52.224C11.6959 52.224 0 40.5342 0 26.112Z" fill="white"/>
<path fill-rule="evenodd" clip-rule="evenodd" d="M49.4474 23.296C48.3164 23.296 47.3994 24.213 47.3994 25.344C47.3994 26.4751 48.3164 27.392 49.4474 27.392C50.5785 27.392 51.4954 26.4751 51.4954 25.344C51.4954 24.213 50.5785 23.296 49.4474 23.296ZM43.8154 25.344C43.8154 22.2336 46.337 19.712 49.4474 19.712C52.5579 19.712 55.0794 22.2336 55.0794 25.344C55.0794 28.4545 52.5579 30.976 49.4474 30.976C46.337 30.976 43.8154 28.4545 43.8154 25.344Z" fill="white"/>
<path fill-rule="evenodd" clip-rule="evenodd" d="M20.5631 20.7495C18.6333 20.7495 17.3934 22.1608 17.3934 23.5157V32.1954C17.3934 33.6093 16.2473 34.7554 14.8334 34.7554C13.4196 34.7554 12.2734 33.6093 12.2734 32.1954V23.5157C12.2734 18.9874 16.1641 15.6295 20.5631 15.6295C24.9621 15.6295 28.8528 18.9874 28.8528 23.5157V32.1954C28.8528 33.6093 27.7067 34.7554 26.2928 34.7554C24.879 34.7554 23.7328 33.6093 23.7328 32.1954V23.5157C23.7328 22.1608 22.493 20.7495 20.5631 20.7495Z" fill="white"/>
<path fill-rule="evenodd" clip-rule="evenodd" d="M32.0226 20.7495C30.0928 20.7495 28.8529 22.1608 28.8529 23.5157V32.1954C28.8529 33.6093 27.7068 34.7554 26.2929 34.7554C24.8791 34.7554 23.7329 33.6093 23.7329 32.1954V23.5157C23.7329 18.9874 27.6236 15.6295 32.0226 15.6295C36.4216 15.6295 40.3123 18.9874 40.3123 23.5157V32.1954C40.3123 33.6093 39.1661 34.7554 37.7523 34.7554C36.3384 34.7554 35.1923 33.6093 35.1923 32.1954V23.5157C35.1923 22.1608 33.9524 20.7495 32.0226 20.7495Z" fill="white"/>
</svg>
